<?xml version="1.0" standalone="no"?>
<!DOCTYPE svg PUBLIC "-//W3C//DTD SVG 20010904//EN"
 "http://www.w3.org/TR/2001/REC-SVG-20010904/DTD/svg10.dtd">
<svg version="1.0" xmlns="http://www.w3.org/2000/svg"
 width="1024.000000pt" height="1024.000000pt" viewBox="0 0 1024.000000 1024.000000"
 preserveAspectRatio="xMidYMid meet">

<g transform="translate(0.000000,1024.000000) scale(0.100000,-0.100000)"
fill="#000000" stroke="none">
<path d="M0 5120 l0 -5120 5120 0 5120 0 0 5120 0 5120 -5120 0 -5120 0 0
-5120z m5792 3425 c413 -69 761 -181 1085 -350 344 -180 565 -344 858 -639
258 -259 421 -470 581 -752 480 -849 590 -1835 307 -2754 -50 -164 -141 -386
-228 -560 -72 -143 -92 -170 -131 -170 -21 0 -64 38 -64 57 0 8 33 82 74 166
183 377 303 777 348 1162 17 146 17 630 0 755 -84 612 -302 1152 -667 1644
-142 192 -353 417 -529 561 -498 411 -1049 658 -1684 755 -136 21 -162 35
-162 85 0 20 41 65 59 65 3 0 72 -11 153 -25z m-1302 -93 c26 -21 30 -66 8
-88 -7 -7 -90 -40 -183 -72 -421 -145 -764 -333 -1105 -606 -111 -88 -373
-355 -473 -481 -385 -484 -626 -1019 -722 -1605 -97 -593 -26 -1195 216 -1822
39 -100 47 -132 40 -151 -17 -44 -81 -51 -106 -13 -26 39 -83 180 -135 332
-126 370 -177 659 -187 1059 -8 341 22 616 103 923 156 600 440 1109 882 1581
319 342 750 637 1183 812 141 57 410 149 435 149 12 0 32 -8 44 -18z m835
-144 c11 -51 34 -89 81 -138 l44 -46 -49 -51 c-33 -34 -54 -68 -66 -104 -10
-30 -21 -58 -25 -62 -3 -4 -14 20 -24 54 -13 49 -27 71 -69 114 l-53 52 52 56
c33 36 58 74 69 106 19 59 31 64 40 19z m-438 -119 c61 -29 84 -81 112 -249
24 -139 187 -1027 196 -1067 5 -22 10 -23 115 -23 106 0 110 1 114 23 15 67
160 869 186 1026 17 101 37 198 44 216 8 18 31 45 52 61 52 40 108 37 314 -19
477 -130 859 -323 1235 -623 139 -112 354 -327 469 -469 322 -401 558 -903
650 -1383 46 -243 51 -296 51 -587 0 -309 -8 -394 -61 -661 -83 -420 -244
-820 -460 -1146 -259 -391 -495 -612 -1001 -936 -92 -59 -215 -142 -273 -183
-113 -81 -175 -108 -399 -173 -655 -191 -1357 -176 -2016 40 -146 48 -188 66
-217 92 -16 14 -18 40 -18 277 l0 262 138 33 c269 64 485 161 777 348 175 112
264 202 296 295 17 49 12 87 -10 87 -4 0 -34 -21 -67 -46 -62 -49 -163 -104
-189 -104 -20 0 -19 19 6 74 25 58 22 100 -7 104 -27 4 -100 -77 -149 -164
-46 -81 -68 -99 -161 -135 -102 -39 -393 -114 -374 -96 3 3 59 48 125 101 114
92 452 401 562 513 74 76 113 159 113 240 0 90 -15 92 -93 11 -35 -37 -86 -77
-116 -92 -47 -25 -55 -26 -69 -13 -13 13 -12 20 3 59 23 61 17 122 -12 126
-42 6 -110 -117 -138 -246 -27 -129 -33 -136 -234 -236 -93 -47 -251 -116
-265 -116 -3 0 -69 69 -147 153 -79 83 -204 217 -280 297 -156 166 -189 204
-189 218 0 5 13 24 29 41 27 29 34 31 98 31 95 0 113 14 113 88 0 94 9 130 34
134 33 5 31 37 -9 152 -20 58 -34 110 -30 115 8 14 8 135 0 161 -8 24 -92 69
-190 101 -88 28 -209 31 -282 6 -103 -36 -177 -129 -192 -242 -10 -72 2 -143
44 -279 19 -60 35 -117 35 -127 0 -16 -197 -267 -211 -268 -9 -1 -68 196 -89
298 -62 303 -17 613 122 853 133 230 319 366 518 376 l85 4 -83 -42 c-202
-102 -354 -273 -433 -490 l-30 -84 45 42 c54 50 126 87 209 109 50 13 83 14
172 7 175 -13 233 -10 288 16 203 96 198 440 -9 669 -67 74 -180 151 -265 181
-136 47 -327 37 -454 -25 -109 -53 -233 -180 -298 -307 -33 -64 -36 -39 -7 71
28 108 71 189 139 258 211 217 569 232 858 35 62 -42 200 -182 230 -233 10
-16 22 -28 28 -26 5 2 20 41 32 88 12 46 27 94 33 107 5 13 10 27 10 32 0 17
-147 86 -690 326 -146 64 -277 125 -292 136 -16 11 -28 29 -28 41 0 32 83 178
113 201 l26 19 68 -34 c117 -59 480 -247 684 -355 108 -57 201 -104 205 -104
14 1 105 150 98 161 -3 6 -117 99 -252 207 -567 454 -548 438 -537 472 4 12
39 55 78 96 76 78 104 89 153 61 11 -7 167 -150 345 -319 178 -168 337 -316
352 -328 l28 -22 42 39 c23 21 57 50 76 64 l33 26 -18 29 c-36 57 -200 293
-360 520 -90 128 -164 238 -164 246 0 19 40 55 115 103 72 46 140 58 167 29
17 -20 43 -65 240 -409 214 -374 228 -397 246 -392 81 25 157 58 160 69 1 7
-61 245 -138 527 -77 283 -140 522 -140 532 0 9 10 24 23 32 l22 16 -25 0
c-28 1 -161 -35 -265 -72 -580 -204 -1070 -572 -1432 -1077 -261 -363 -435
-784 -515 -1248 -19 -111 -22 -164 -22 -417 -1 -324 8 -408 70 -690 32 -144
39 -164 69 -195 58 -62 41 -12 335 -973 139 -453 200 -666 196 -683 -4 -14
-18 -30 -32 -36 -33 -16 -73 14 -90 68 -23 72 -231 745 -338 1092 -114 369
-128 406 -160 427 -37 23 -85 28 -111 11 -23 -15 -24 -15 -43 37 -34 90 -91
335 -113 482 -26 178 -37 582 -20 746 40 377 139 723 306 1064 291 596 726
1060 1300 1387 234 133 497 239 800 321 204 56 218 57 282 26z m441 -402 c6
-18 27 -48 46 -67 l34 -35 -34 -37 c-18 -21 -41 -55 -50 -75 l-16 -38 -18 40
c-10 22 -32 53 -49 69 -17 17 -31 35 -31 41 0 6 15 26 34 44 19 19 40 47 47
62 15 37 22 36 37 -4z m2512 -4997 c20 -20 26 -65 12 -86 -4 -5 -59 -58 -124
-117 -94 -87 -122 -107 -147 -107 -49 0 -79 62 -48 100 7 8 63 63 124 123 119
114 144 126 183 87z"/>
<path d="M5930 7910 c0 -6 7 -13 15 -16 29 -12 31 -5 -154 -697 -49 -186 -91
-352 -93 -369 -3 -30 -1 -32 81 -65 46 -18 86 -32 88 -29 6 5 273 482 381 680
46 83 84 141 96 146 11 4 35 4 54 -1 41 -9 200 -113 209 -136 8 -20 7 -21
-148 -245 -69 -101 -184 -268 -254 -373 l-128 -189 44 -39 c24 -21 60 -51 79
-67 l36 -28 69 67 c39 36 197 189 352 338 164 160 292 275 307 279 44 11 70
-3 138 -74 70 -72 89 -111 68 -138 -13 -15 -102 -88 -421 -344 -302 -243 -351
-283 -355 -295 -4 -9 68 -130 90 -152 5 -5 189 89 630 324 180 97 300 155 319
155 23 1 37 -7 56 -30 39 -46 93 -157 89 -184 -4 -29 -68 -62 -448 -229 -392
-173 -560 -250 -560 -258 0 -4 11 -43 24 -87 15 -52 29 -80 39 -82 21 -4 548
123 847 205 137 37 250 63 270 61 42 -4 56 -27 93 -158 29 -98 25 -115 -31
-128 -64 -16 -425 -82 -692 -127 -140 -24 -309 -54 -375 -67 l-120 -23 295 -8
c162 -4 448 -5 635 -1 187 3 352 3 367 -1 31 -8 35 -16 43 -87 4 -37 2 -58 -8
-71 -14 -21 31 -17 -717 -52 -179 -8 -389 -18 -467 -21 -151 -8 -163 -12 -120
-52 52 -49 184 -85 378 -102 131 -11 1159 -14 1159 -2 -1 50 -22 304 -30 357
-91 588 -337 1105 -733 1540 -109 120 -281 279 -395 366 -295 225 -670 412
-994 494 -111 29 -108 28 -108 15z"/>
<path d="M5172 6629 c-159 -20 -338 -88 -473 -180 -208 -140 -378 -383 -446
-636 -24 -88 -27 -116 -27 -268 0 -154 3 -179 27 -268 117 -427 437 -735 844
-816 156 -31 200 -32 231 -7 133 105 356 200 577 246 174 36 280 40 1171 40
l874 0 6 -26 c8 -31 -12 -128 -30 -143 -8 -7 -337 -11 -986 -14 -1078 -4
-1034 -2 -1236 -70 -119 -41 -189 -75 -270 -133 -266 -188 -307 -466 -100
-682 102 -106 211 -170 406 -236 110 -38 213 -63 585 -146 149 -32 304 -70
345 -84 l75 -24 -730 -1 -731 -1 -72 -73 -73 -74 107 -6 c59 -4 451 -7 871 -7
842 0 807 3 834 -62 19 -46 16 -113 -6 -138 -18 -20 -31 -20 -1038 -20 l-1019
0 -157 -72 c-86 -39 -160 -75 -165 -80 -6 -4 445 -8 1001 -8 619 0 1014 -4
1018 -9 13 -22 -155 -113 -315 -169 l-75 -27 -888 -3 c-994 -3 -948 -6 -1084
68 -40 22 -79 40 -87 40 -12 0 -14 -17 -9 -112 3 -62 8 -116 12 -119 6 -7 147
-53 266 -87 112 -33 380 -89 505 -107 259 -36 591 -30 859 16 424 73 906 253
1186 442 197 134 512 487 743 833 267 400 445 952 485 1502 l4 52 -978 0
c-539 0 -979 3 -979 6 0 3 15 33 34 67 82 148 128 334 128 517 -1 231 -54 408
-183 605 -62 94 -199 234 -284 290 -231 153 -497 218 -753 184z m2701 -2300
c6 -10 4 -33 -7 -73 -30 -103 67 -93 -917 -93 -863 0 -864 0 -945 -22 -124
-34 -181 -93 -141 -143 11 -14 112 -16 941 -21 695 -5 931 -9 936 -18 17 -26
-36 -151 -71 -170 -16 -8 -224 -10 -763 -8 -582 2 -755 0 -806 -11 -82 -16
-93 -26 -44 -39 119 -31 171 -42 289 -65 317 -60 402 -68 814 -75 340 -5 375
-8 385 -23 13 -22 -11 -70 -68 -135 l-40 -45 -250 5 c-286 5 -326 11 -1036
162 -422 90 -660 214 -705 367 -17 60 -14 90 16 148 62 123 306 239 567 270
37 4 465 7 951 6 789 -1 885 -3 894 -17z"/>
</g>
</svg>
